{
 "asset": {
  "generator": "Khronos glTF Blender I/O v3.2.43",
  "version": "2.0"
 },
 "scene": 0,
 "scenes": [
  {
   "name": "Scene",
   "nodes": [0]
  }
 ],
 "nodes": [
  {
   "mesh": 0,
   "name": "Curve.002",
   "rotation": [0.7071068286895752, 0, 0, 0.7071068286895752],
   "scale": [97.41416931152344, 97.41416931152344, 97.41416931152344]
  }
 ],
 "materials": [
  {
   "doubleSided": true,
   "name": "Material.001",
   "pbrMetallicRoughness": {
    "baseColorFactor": [
     0.0495782308280468, 0.3576311767101288, 0.8000000715255737, 1
    ],
    "metallicFactor": 0.8995816111564636,
    "roughnessFactor": 0.21548116207122803
   }
  }
 ],
 "meshes": [
  {
   "name": "Curve.002",
   "primitives": [
    {
     "attributes": {
      "POSITION": 0,
      "NORMAL": 1,
      "TEXCOORD_0": 2
     },
     "indices": 3,
     "material": 0
    }
   ]
  }
 ],
 "accessors": [
  {
   "bufferView": 0,
   "componentType": 5126,
   "count": 4957,
   "max": [0.010321419686079025, 0.0013001302722841501, 0.008471633307635784],
   "min": [
    -0.011692363768815994, -0.0013001402840018272, -0.0076683987863361835
   ],
   "type": "VEC3"
  },
  {
   "bufferView": 1,
   "componentType": 5126,
   "count": 4957,
   "type": "VEC3"
  },
  {
   "bufferView": 2,
   "componentType": 5126,
   "count": 4957,
   "type": "VEC2"
  },
  {
   "bufferView": 3,
   "componentType": 5123,
   "count": 7032,
   "type": "SCALAR"
  }
 ],
 "bufferViews": [
  {
   "buffer": 0,
   "byteLength": 59484,
   "byteOffset": 0
  },
  {
   "buffer": 0,
   "byteLength": 59484,
   "byteOffset": 59484
  },
  {
   "buffer": 0,
   "byteLength": 39656,
   "byteOffset": 118968
  },
  {
   "buffer": 0,
   "byteLength": 14064,
   "byteOffset": 158624
  }
 ],
 "buffers": [
  {
   "byteLength": 172688,
   "uri": "data:application/octet-stream;base64,"
  }
 ]
}
