{
  "asset": {
    "generator": "Khronos glTF Blender I/O v3.2.43",
    "version": "2.0"
  },
  "scene": 0,
  "scenes": [
    {
      "name": "Scene",
      "nodes": [0]
    }
  ],
  "nodes": [
    {
      "mesh": 0,
      "name": "Curve",
      "rotation": [0.7071068286895752, 0, 0, 0.7071068286895752],
      "scale": [4, 4, 4]
    }
  ],
  "materials": [
    {
      "doubleSided": true,
      "name": "Material",
      "pbrMetallicRoughness": {
        "baseColorFactor": [0.06480319797992706, 0.05612844228744507, 0.06662596017122269, 1],
        "metallicFactor": 0.9155827760696411,
        "roughnessFactor": 0.12175635248422623
      }
    }
  ],
  "meshes": [
    {
      "name": "Curve",
      "primitives": [
        {
          "attributes": {
            "POSITION": 0,
            "NORMAL": 1,
            "TEXCOORD_0": 2
          },
          "indices": 3,
          "material": 0
        }
      ]
    }
  ],
  "accessors": [
    {
      "bufferView": 0,
      "componentType": 5126,
      "count": 3775,
      "max": [0.109803207218647, 0.004847114905714989, 0.03195899352431297],
      "min": [-0.11770642548799515, -0.004847130738198757, -0.021125344559550285],
      "type": "VEC3"
    },
    {
      "bufferView": 1,
      "componentType": 5126,
      "count": 3775,
      "type": "VEC3"
    },
    {
      "bufferView": 2,
      "componentType": 5126,
      "count": 3775,
      "type": "VEC2"
    },
    {
      "bufferView": 3,
      "componentType": 5123,
      "count": 5316,
      "type": "SCALAR"
    }
  ],
  "bufferViews": [
    {
      "buffer": 0,
      "byteLength": 45300,
      "byteOffset": 0
    },
    {
      "buffer": 0,
      "byteLength": 45300,
      "byteOffset": 45300
    },
    {
      "buffer": 0,
      "byteLength": 30200,
      "byteOffset": 90600
    },
    {
      "buffer": 0,
      "byteLength": 10632,
      "byteOffset": 120800
    }
  ],
  "buffers": [
    {
      "byteLength": 131432,
      "uri": "data:application/octet-stream;base64,"
    }
  ]
}
