<?xml version="1.0" encoding="utf-8"?>
<!-- Generator: Adobe Illustrator 27.0.0, SVG Export Plug-In . SVG Version: 6.00 Build 0)  -->
<svg version="1.1" id="Layer_1" xmlns="http://www.w3.org/2000/svg" xmlns:xlink="http://www.w3.org/1999/xlink" x="0px" y="0px"
	 viewBox="0 0 40 40" style="enable-background:new 0 0 40 40;" xml:space="preserve">
<style type="text/css">
	.st0{fill-rule:evenodd;clip-rule:evenodd;fill:#F6F1F0;}
	.st1{fill:#7F675B;}
</style>
<path class="st0" d="M39.3,8.5c-0.5-4.1-3.8-7.4-7.9-7.8c-7.5-0.8-15.3-0.8-22.8,0C4.5,1.1,1.2,4.3,0.7,8.5c-0.9,7.7-0.9,15.4,0,23
	c0.5,4.1,3.8,7.4,7.9,7.8c7.5,0.8,15.3,0.8,22.8,0c4.1-0.5,7.5-3.7,7.9-7.8C40.2,23.9,40.2,16.1,39.3,8.5z"/>
<g>
	<path class="st1" d="M36.6,21.9c-0.7,2.2-1.7,4-4.2,5.2C30,28.3,26.3,29,20.3,29c-5.9,0-16.9-0.3-16.9-9s11-9,16.9-9
		s15,0.5,16.2,7.2h-11c-0.3-1.2-1.5-2.9-5.2-2.9c-4,0-6.5,1.3-6.5,4.7s2.4,4.7,6,4.7c3.1,0,4.9-0.8,5.7-2.9L36.6,21.9L36.6,21.9z"/>
</g>
</svg>
