<svg width="512" height="512" viewBox="0 0 512 512" fill="none" xmlns="http://www.w3.org/2000/svg">
<g filter="url(#filter0_dd_7_3)">
<path d="M483 281.629C473.974 312.468 459.711 336.809 425.947 353.699C393.131 370.589 341.789 380 260.027 380C178.264 380 28 376.415 28 256C28 135.585 178.71 132 259.999 132C341.288 132 465.868 138.806 482.972 230.987H331.788C327.972 214.433 311.814 190.429 259.999 190.429C204.841 190.429 170.631 208.943 170.631 256C170.631 303.057 203.921 321.571 253.369 321.571C295.685 321.571 320.868 309.891 331.816 281.657H483V281.629Z" fill="url(#paint0_linear_7_3)"/>
</g>
<defs>
<filter id="filter0_dd_7_3" x="24" y="128" width="463" height="260" filterUnits="userSpaceOnUse" color-interpolation-filters="sRGB">
<feFlood flood-opacity="0" result="BackgroundImageFix"/>
<feColorMatrix in="SourceAlpha" type="matrix" values="0 0 0 0 0 0 0 0 0 0 0 0 0 0 0 0 0 0 127 0" result="hardAlpha"/>
<feOffset/>
<feGaussianBlur stdDeviation="2"/>
<feComposite in2="hardAlpha" operator="out"/>
<feColorMatrix type="matrix" values="0 0 0 0 0 0 0 0 0 0 0 0 0 0 0 0 0 0 0.25 0"/>
<feBlend mode="normal" in2="BackgroundImageFix" result="effect1_dropShadow_7_3"/>
<feColorMatrix in="SourceAlpha" type="matrix" values="0 0 0 0 0 0 0 0 0 0 0 0 0 0 0 0 0 0 127 0" result="hardAlpha"/>
<feOffset dy="4"/>
<feGaussianBlur stdDeviation="2"/>
<feComposite in2="hardAlpha" operator="out"/>
<feColorMatrix type="matrix" values="0 0 0 0 0 0 0 0 0 0 0 0 0 0 0 0 0 0 0.25 0"/>
<feBlend mode="normal" in2="effect1_dropShadow_7_3" result="effect2_dropShadow_7_3"/>
<feBlend mode="normal" in="SourceGraphic" in2="effect2_dropShadow_7_3" result="shape"/>
</filter>
<linearGradient id="paint0_linear_7_3" x1="255.5" y1="132" x2="254.877" y2="569.427" gradientUnits="userSpaceOnUse">
<stop stop-color="white"/>
<stop offset="1" stop-color="#E0E0E0"/>
</linearGradient>
</defs>
</svg>
