<?xml version="1.0" encoding="utf-8"?>
<!-- Generator: Adobe Illustrator 26.5.0, SVG Export Plug-In . SVG Version: 6.00 Build 0)  -->
<svg version="1.1" id="Layer_1" xmlns="http://www.w3.org/2000/svg" xmlns:xlink="http://www.w3.org/1999/xlink" x="0px" y="0px"
	 viewBox="0 0 40 40" style="enable-background:new 0 0 40 40;" xml:space="preserve">
<style type="text/css">
	.st0{fill:#484349;}
	.st1{fill:#F7F0F0;}
</style>
<rect class="st0" width="40" height="40"/>
<g>
	<path class="st1" d="M36.6,21.9c-0.7,2.2-1.7,4-4.2,5.2C30,28.3,26.3,29,20.3,29c-5.9,0-16.9-0.3-16.9-9c0-8.7,11-9,16.9-9
		c5.9,0,15,0.5,16.2,7.2h-11c-0.3-1.2-1.5-2.9-5.2-2.9c-4,0-6.5,1.3-6.5,4.7s2.4,4.7,6,4.7c3.1,0,4.9-0.8,5.7-2.9H36.6z"/>
</g>
</svg>
