<svg xmlns="http://www.w3.org/2000/svg" shape-rendering="geometricPrecision" text-rendering="geometricPrecision"
     image-rendering="optimizeQuality" fill-rule="evenodd" clip-rule="evenodd" viewBox="0 0 512 491.96">
    <path fill-rule="nonzero"
          d="m243.9 135.59-138.42 46.1 150.83 68.41 150.83-66.48-112.62-38.59v-20.84l142.87 48.93c4.39 1.78 7.05 5.76 6.66 10.19.03.21.03.46.03.7v180.47l32.6 18.81-6.37-19.21c-3.6-11.24 20.69-21.6 25.6-3.91l15.55 45.94c2.04 7.73-1.79 14.56-9.49 16.76l-47.9 9.78c-15.66 4.04-24.15-19.22-6.77-25.34l17.54-3.14-116.42-67.2c-5.73-3.32-7.7-10.66-4.39-16.4 3.31-5.74 10.66-7.7 16.39-4.39l63.87 36.87V197.61l-158.17 69.7v198.7l133.22-67.71 20.38 11.76-158.36 80.47a9.928 9.928 0 0 1-10.47-.15L94.48 408.79l20.21-11.66 131.67 68.69v-198.6L87.64 195.26v157.82l63.94-36.9c5.73-3.31 13.08-1.35 16.39 4.39 3.31 5.74 1.34 13.08-4.39 16.4l-116.42 67.2 17.54 3.14c17.38 6.12 8.89 29.38-6.77 25.34l-47.9-9.78c-7.7-2.2-11.53-9.03-9.49-16.76l15.55-45.94c4.91-17.69 29.2-7.33 25.6 3.91l-6.37 19.21 32.6-18.81-.03-184.06c0-5.38 3.67-7.8 8.48-9.79l167.53-55.77-.01-69.04-13.46 15.12c-7.93 8.73-29.05-7.12-16.18-20.22l32.03-36.43c5.67-5.64 13.5-5.73 19.25-.16l32.41 36.59c11.33 11.54-4.56 30.52-18.55 18.53L267.9 45.64l.01 134.42c-.01 6.62-5.38 11.99-12.01 12-6.63 0-12-5.38-12-12v-44.47z"/>
</svg>
