<svg xmlns="http://www.w3.org/2000/svg" shape-rendering="geometricPrecision" text-rendering="geometricPrecision"
     image-rendering="optimizeQuality" fill-rule="evenodd" clip-rule="evenodd" viewBox="0 0 367 511.76">
    <path fill="#E6007E" d="M183.5 181.42V0c100.19 0 181.42 81.23 181.42 181.42H183.5z"/>
    <path fill="#1D1D1B" d="M183.5 181.42h181.42c0 100.19-81.23 181.42-181.42 181.42V181.42z"/>
    <path fill="#FEED01" d="M183.5 181.42v181.41c-100.19 0-181.42-81.22-181.42-181.41H183.5z"/>
    <path fill="#009FE3" d="M183.5 181.42H2.08C2.08 81.23 83.31 0 183.5 0v181.42z"/>
    <path fill="#E6007E" d="M183.5 181.42v-10.56h181.11c.2 3.5.31 7.02.31 10.56H183.5z"/>
    <path fill="#1D1D1B" d="M183.5 181.42h181.42c0 3.54-.12 7.06-.32 10.56H183.5v-10.56z"/>
    <path fill="#FEED01" d="M183.5 181.42v10.56H2.39c-.2-3.5-.31-7.02-.31-10.56H183.5z"/>
    <path fill="#009FE3" d="M183.5 181.42H2.08c0-3.54.12-7.06.32-10.56h181.1v10.56z"/>
    <path fill="#E6007E" d="M183.5 181.42V0c3.54 0 7.06.12 10.56.32v181.1H183.5z"/>
    <path fill="#1D1D1B" d="M183.5 181.42h10.56v181.11c-3.5.2-7.02.31-10.56.31V181.42z"/>
    <path fill="#FEED01" d="M183.5 181.42v181.41c-3.54 0-7.06-.11-10.56-.31v-181.1h10.56z"/>
    <path fill="#009FE3" d="M183.5 181.42h-10.56V.31c3.5-.2 7.02-.31 10.56-.31v181.42z"/>
    <path fill="#fff"
          d="M183.5 0c3.55 0 7.06.12 10.56.32v170.54h170.55c.2 3.5.31 7.02.31 10.56 0 3.55-.12 7.06-.32 10.56H194.06v170.55c-3.5.2-7.02.31-10.56.31v-.01c-3.55 0-7.06-.11-10.56-.31V191.98H2.39c-.2-3.5-.31-7.02-.31-10.56 0-3.55.12-7.06.32-10.56h170.54V.31c3.5-.2 7.02-.31 10.56-.31z"/>
    <path fill-rule="nonzero"
          d="m67.1 482.51 2.26 25.33c-6.33 2.62-14.28 3.92-23.83 3.92-9.54 0-17.21-1-22.99-3.01-5.78-2.01-10.33-5.18-13.65-9.5-3.31-4.32-5.62-9.4-6.93-15.23C.65 478.19 0 471 0 462.46c0-8.55.65-15.76 1.96-21.64 1.31-5.88 3.62-10.98 6.93-15.3C15.33 417.17 27.14 413 44.33 413c3.82 0 8.32.38 13.49 1.13 5.18.76 9.02 1.69 11.54 2.79l-4.52 23.07c-6.54-1.41-12.52-2.11-17.95-2.11s-9.19.5-11.31 1.51c-2.11 1-3.16 3.02-3.16 6.03v39.51c3.92.8 7.89 1.2 11.91 1.2 8.54 0 16.13-1.2 22.77-3.62zm40.56 26.99H76.14l5.74-94.24h39.35l11.76 47.95h1.06l11.76-47.95h39.35l5.73 94.24h-31.51l-1.81-45.68h-1.06l-11.46 45.68h-23.07l-11.61-45.68h-.9l-1.81 45.68zm120.32-94.24 8.29 33.18h1.06l8.44-33.18h33.32l-27.13 68.61v25.63H221.8v-25.63l-27.14-68.61h33.32zm88.81 53.23v41.01h-30.16v-94.24h30.16v38.45h.6c.2-3.01.71-5.42 1.51-7.23l14.78-31.22h32.56l-22.61 46.29L367 509.5h-32.57l-15.53-33.77c-.8-1.81-1.31-4.22-1.51-7.24h-.6z"/>
</svg>
